<mxfile host="www.draw.io" modified="2020-02-23T21:20:31.181Z" agent="Mozilla/5.0 (Macintosh; Intel Mac OS X 10_14_6) AppleWebKit/537.36 (KHTML, like Gecko) Chrome/79.0.3945.130 Safari/537.36" etag="yw9UAaNm2qkCPM944WNz" version="12.7.4" type="github">
  <diagram id="C5RBs43oDa-KdzZeNtuy" name="Page-1">
    <mxGraphModel dx="1987" dy="856" grid="1" gridSize="10" guides="1" tooltips="1" connect="1" arrows="1" fold="1" page="1" pageScale="1" pageWidth="827" pageHeight="1169" math="0" shadow="0">
      <root>
        <mxCell id="WIyWlLk6GJQsqaUBKTNV-0" />
        <mxCell id="WIyWlLk6GJQsqaUBKTNV-1" parent="WIyWlLk6GJQsqaUBKTNV-0" />
        <mxCell id="VO69o7CRef01QfNxVuK8-0" value="Store" style="swimlane;fontStyle=1;align=center;verticalAlign=top;childLayout=stackLayout;horizontal=1;startSize=26;horizontalStack=0;resizeParent=1;resizeLast=0;collapsible=1;marginBottom=0;rounded=0;shadow=0;strokeWidth=1;" parent="WIyWlLk6GJQsqaUBKTNV-1" vertex="1">
          <mxGeometry x="-10" y="1260" width="250" height="296" as="geometry">
            <mxRectangle x="230" y="140" width="160" height="26" as="alternateBounds" />
          </mxGeometry>
        </mxCell>
        <mxCell id="VO69o7CRef01QfNxVuK8-1" value="- transactions : LinkedList" style="text;align=left;verticalAlign=top;spacingLeft=4;spacingRight=4;overflow=hidden;rotatable=0;points=[[0,0.5],[1,0.5]];portConstraint=eastwest;" parent="VO69o7CRef01QfNxVuK8-0" vertex="1">
          <mxGeometry y="26" width="250" height="26" as="geometry" />
        </mxCell>
        <mxCell id="VO69o7CRef01QfNxVuK8-2" value="- customers : HashTable&lt;Integer, Customer&gt;" style="text;align=left;verticalAlign=top;spacingLeft=4;spacingRight=4;overflow=hidden;rotatable=0;points=[[0,0.5],[1,0.5]];portConstraint=eastwest;rounded=0;shadow=0;html=0;fontColor=#000000;" parent="VO69o7CRef01QfNxVuK8-0" vertex="1">
          <mxGeometry y="52" width="250" height="26" as="geometry" />
        </mxCell>
        <mxCell id="VO69o7CRef01QfNxVuK8-3" value="- inventory : HashTable&lt;String, BST&gt;" style="text;align=left;verticalAlign=top;spacingLeft=4;spacingRight=4;overflow=hidden;rotatable=0;points=[[0,0.5],[1,0.5]];portConstraint=eastwest;rounded=0;shadow=0;html=0;fontColor=#000000;" parent="VO69o7CRef01QfNxVuK8-0" vertex="1">
          <mxGeometry y="78" width="250" height="26" as="geometry" />
        </mxCell>
        <mxCell id="VO69o7CRef01QfNxVuK8-4" value="" style="line;html=1;strokeWidth=1;align=left;verticalAlign=middle;spacingTop=-1;spacingLeft=3;spacingRight=3;rotatable=0;labelPosition=right;points=[];portConstraint=eastwest;" parent="VO69o7CRef01QfNxVuK8-0" vertex="1">
          <mxGeometry y="104" width="250" height="8" as="geometry" />
        </mxCell>
        <mxCell id="VO69o7CRef01QfNxVuK8-5" value="+ Store ( )" style="text;align=left;verticalAlign=top;spacingLeft=4;spacingRight=4;overflow=hidden;rotatable=0;points=[[0,0.5],[1,0.5]];portConstraint=eastwest;" parent="VO69o7CRef01QfNxVuK8-0" vertex="1">
          <mxGeometry y="112" width="250" height="28" as="geometry" />
        </mxCell>
        <mxCell id="VO69o7CRef01QfNxVuK8-6" value="+ populateInventory(&amp; inFile)" style="text;strokeColor=none;fillColor=none;align=left;verticalAlign=top;spacingLeft=4;spacingRight=4;overflow=hidden;rotatable=0;points=[[0,0.5],[1,0.5]];portConstraint=eastwest;" parent="VO69o7CRef01QfNxVuK8-0" vertex="1">
          <mxGeometry y="140" width="250" height="26" as="geometry" />
        </mxCell>
        <mxCell id="VO69o7CRef01QfNxVuK8-7" value="+ populateCustomers(&amp; inFile)" style="text;strokeColor=none;fillColor=none;align=left;verticalAlign=top;spacingLeft=4;spacingRight=4;overflow=hidden;rotatable=0;points=[[0,0.5],[1,0.5]];portConstraint=eastwest;" parent="VO69o7CRef01QfNxVuK8-0" vertex="1">
          <mxGeometry y="166" width="250" height="26" as="geometry" />
        </mxCell>
        <mxCell id="VO69o7CRef01QfNxVuK8-8" value="+ readCommands(&amp; inFile)" style="text;strokeColor=none;fillColor=none;align=left;verticalAlign=top;spacingLeft=4;spacingRight=4;overflow=hidden;rotatable=0;points=[[0,0.5],[1,0.5]];portConstraint=eastwest;" parent="VO69o7CRef01QfNxVuK8-0" vertex="1">
          <mxGeometry y="192" width="250" height="26" as="geometry" />
        </mxCell>
        <mxCell id="VO69o7CRef01QfNxVuK8-9" value="- executeCommands( )" style="text;strokeColor=none;fillColor=none;align=left;verticalAlign=top;spacingLeft=4;spacingRight=4;overflow=hidden;rotatable=0;points=[[0,0.5],[1,0.5]];portConstraint=eastwest;" parent="VO69o7CRef01QfNxVuK8-0" vertex="1">
          <mxGeometry y="218" width="250" height="26" as="geometry" />
        </mxCell>
        <mxCell id="pLziMYB7hLuN-mU67Tzj-5" value="- removeFromInventory(Movie)" style="text;strokeColor=none;fillColor=none;align=left;verticalAlign=top;spacingLeft=4;spacingRight=4;overflow=hidden;rotatable=0;points=[[0,0.5],[1,0.5]];portConstraint=eastwest;" vertex="1" parent="VO69o7CRef01QfNxVuK8-0">
          <mxGeometry y="244" width="250" height="26" as="geometry" />
        </mxCell>
        <mxCell id="pLziMYB7hLuN-mU67Tzj-6" value="- printInventory( )" style="text;strokeColor=none;fillColor=none;align=left;verticalAlign=top;spacingLeft=4;spacingRight=4;overflow=hidden;rotatable=0;points=[[0,0.5],[1,0.5]];portConstraint=eastwest;" vertex="1" parent="VO69o7CRef01QfNxVuK8-0">
          <mxGeometry y="270" width="250" height="26" as="geometry" />
        </mxCell>
        <mxCell id="VO69o7CRef01QfNxVuK8-13" value="" style="endArrow=block;endSize=10;endFill=0;shadow=0;strokeWidth=1;rounded=0;edgeStyle=elbowEdgeStyle;elbow=vertical;exitX=0.5;exitY=0;exitDx=0;exitDy=0;entryX=0.5;entryY=1;entryDx=0;entryDy=0;" parent="WIyWlLk6GJQsqaUBKTNV-1" target="VO69o7CRef01QfNxVuK8-14" edge="1">
          <mxGeometry width="160" relative="1" as="geometry">
            <mxPoint x="235" y="1630" as="sourcePoint" />
            <mxPoint x="721" y="1631" as="targetPoint" />
            <Array as="points">
              <mxPoint x="360" y="1590" />
            </Array>
          </mxGeometry>
        </mxCell>
        <mxCell id="VO69o7CRef01QfNxVuK8-14" value="Transaction" style="swimlane;fontStyle=0;align=center;verticalAlign=top;childLayout=stackLayout;horizontal=1;startSize=26;horizontalStack=0;resizeParent=1;resizeLast=0;collapsible=1;marginBottom=0;rounded=0;shadow=0;strokeWidth=1;" parent="WIyWlLk6GJQsqaUBKTNV-1" vertex="1">
          <mxGeometry x="375" y="1320" width="190" height="180" as="geometry">
            <mxRectangle x="500" y="120" width="160" height="26" as="alternateBounds" />
          </mxGeometry>
        </mxCell>
        <mxCell id="VO69o7CRef01QfNxVuK8-17" value="- transactionType : char" style="text;strokeColor=none;fillColor=none;align=left;verticalAlign=top;spacingLeft=4;spacingRight=4;overflow=hidden;rotatable=0;points=[[0,0.5],[1,0.5]];portConstraint=eastwest;fontColor=#000000;" parent="VO69o7CRef01QfNxVuK8-14" vertex="1">
          <mxGeometry y="26" width="190" height="26" as="geometry" />
        </mxCell>
        <mxCell id="VO69o7CRef01QfNxVuK8-18" value="" style="line;html=1;strokeWidth=1;align=left;verticalAlign=middle;spacingTop=-1;spacingLeft=3;spacingRight=3;rotatable=0;labelPosition=right;points=[];portConstraint=eastwest;" parent="VO69o7CRef01QfNxVuK8-14" vertex="1">
          <mxGeometry y="52" width="190" height="8" as="geometry" />
        </mxCell>
        <mxCell id="pLziMYB7hLuN-mU67Tzj-29" value="- Transaction(string)" style="text;strokeColor=none;fillColor=none;align=left;verticalAlign=top;spacingLeft=4;spacingRight=4;overflow=hidden;rotatable=0;points=[[0,0.5],[1,0.5]];portConstraint=eastwest;fontColor=#000000;" vertex="1" parent="VO69o7CRef01QfNxVuK8-14">
          <mxGeometry y="60" width="190" height="26" as="geometry" />
        </mxCell>
        <mxCell id="pLziMYB7hLuN-mU67Tzj-30" value="- virtual ~Transaction( )" style="text;strokeColor=none;fillColor=none;align=left;verticalAlign=top;spacingLeft=4;spacingRight=4;overflow=hidden;rotatable=0;points=[[0,0.5],[1,0.5]];portConstraint=eastwest;fontColor=#000000;" vertex="1" parent="VO69o7CRef01QfNxVuK8-14">
          <mxGeometry y="86" width="190" height="26" as="geometry" />
        </mxCell>
        <mxCell id="VO69o7CRef01QfNxVuK8-20" value="- virtual isValid( )" style="text;strokeColor=none;fillColor=none;align=left;verticalAlign=top;spacingLeft=4;spacingRight=4;overflow=hidden;rotatable=0;points=[[0,0.5],[1,0.5]];portConstraint=eastwest;" parent="VO69o7CRef01QfNxVuK8-14" vertex="1">
          <mxGeometry y="112" width="190" height="26" as="geometry" />
        </mxCell>
        <mxCell id="VO69o7CRef01QfNxVuK8-21" value="+ doTransaction ( )" style="text;strokeColor=none;fillColor=none;align=left;verticalAlign=top;spacingLeft=4;spacingRight=4;overflow=hidden;rotatable=0;points=[[0,0.5],[1,0.5]];portConstraint=eastwest;" parent="VO69o7CRef01QfNxVuK8-14" vertex="1">
          <mxGeometry y="138" width="190" height="26" as="geometry" />
        </mxCell>
        <mxCell id="VO69o7CRef01QfNxVuK8-22" value="" style="endArrow=open;shadow=0;strokeWidth=1;strokeColor=#000000;rounded=0;endFill=1;edgeStyle=orthogonalEdgeStyle;elbow=vertical;entryX=0;entryY=0.5;entryDx=0;entryDy=0;exitX=1;exitY=0.5;exitDx=0;exitDy=0;" parent="WIyWlLk6GJQsqaUBKTNV-1" source="VO69o7CRef01QfNxVuK8-1" target="VO69o7CRef01QfNxVuK8-26" edge="1">
          <mxGeometry x="0.5" y="41" relative="1" as="geometry">
            <mxPoint x="420" y="1372" as="sourcePoint" />
            <mxPoint x="580" y="1372" as="targetPoint" />
            <mxPoint x="-40" y="32" as="offset" />
            <Array as="points">
              <mxPoint x="300" y="1299" />
              <mxPoint x="300" y="1161" />
            </Array>
          </mxGeometry>
        </mxCell>
        <mxCell id="VO69o7CRef01QfNxVuK8-23" value="0..1" style="resizable=0;align=left;verticalAlign=bottom;labelBackgroundColor=none;fontSize=12;" parent="VO69o7CRef01QfNxVuK8-22" connectable="0" vertex="1">
          <mxGeometry x="-1" relative="1" as="geometry">
            <mxPoint y="1" as="offset" />
          </mxGeometry>
        </mxCell>
        <mxCell id="VO69o7CRef01QfNxVuK8-24" value="1" style="resizable=0;align=right;verticalAlign=bottom;labelBackgroundColor=none;fontSize=12;" parent="VO69o7CRef01QfNxVuK8-22" connectable="0" vertex="1">
          <mxGeometry x="1" relative="1" as="geometry">
            <mxPoint x="-4" y="-2" as="offset" />
          </mxGeometry>
        </mxCell>
        <mxCell id="VO69o7CRef01QfNxVuK8-25" value="LinkedList&lt;Transaction&gt;" style="swimlane;fontStyle=0;align=center;verticalAlign=top;childLayout=stackLayout;horizontal=1;startSize=26;horizontalStack=0;resizeParent=1;resizeParentMax=0;resizeLast=0;collapsible=1;marginBottom=0;" parent="WIyWlLk6GJQsqaUBKTNV-1" vertex="1">
          <mxGeometry x="390" y="1122" width="160" height="138" as="geometry" />
        </mxCell>
        <mxCell id="VO69o7CRef01QfNxVuK8-26" value="+ field: type" style="text;strokeColor=none;fillColor=none;align=left;verticalAlign=top;spacingLeft=4;spacingRight=4;overflow=hidden;rotatable=0;points=[[0,0.5],[1,0.5]];portConstraint=eastwest;" parent="VO69o7CRef01QfNxVuK8-25" vertex="1">
          <mxGeometry y="26" width="160" height="26" as="geometry" />
        </mxCell>
        <mxCell id="VO69o7CRef01QfNxVuK8-27" value="" style="line;strokeWidth=1;fillColor=none;align=left;verticalAlign=middle;spacingTop=-1;spacingLeft=3;spacingRight=3;rotatable=0;labelPosition=right;points=[];portConstraint=eastwest;" parent="VO69o7CRef01QfNxVuK8-25" vertex="1">
          <mxGeometry y="52" width="160" height="8" as="geometry" />
        </mxCell>
        <mxCell id="VO69o7CRef01QfNxVuK8-28" value="+ push(type): type" style="text;strokeColor=none;fillColor=none;align=left;verticalAlign=top;spacingLeft=4;spacingRight=4;overflow=hidden;rotatable=0;points=[[0,0.5],[1,0.5]];portConstraint=eastwest;" parent="VO69o7CRef01QfNxVuK8-25" vertex="1">
          <mxGeometry y="60" width="160" height="26" as="geometry" />
        </mxCell>
        <mxCell id="VO69o7CRef01QfNxVuK8-29" value="+ pop(type): type" style="text;strokeColor=none;fillColor=none;align=left;verticalAlign=top;spacingLeft=4;spacingRight=4;overflow=hidden;rotatable=0;points=[[0,0.5],[1,0.5]];portConstraint=eastwest;" parent="VO69o7CRef01QfNxVuK8-25" vertex="1">
          <mxGeometry y="86" width="160" height="26" as="geometry" />
        </mxCell>
        <mxCell id="VO69o7CRef01QfNxVuK8-30" value="+ build(type): type" style="text;strokeColor=none;fillColor=none;align=left;verticalAlign=top;spacingLeft=4;spacingRight=4;overflow=hidden;rotatable=0;points=[[0,0.5],[1,0.5]];portConstraint=eastwest;" parent="VO69o7CRef01QfNxVuK8-25" vertex="1">
          <mxGeometry y="112" width="160" height="26" as="geometry" />
        </mxCell>
        <mxCell id="VO69o7CRef01QfNxVuK8-34" value="Borrow" style="swimlane;fontStyle=0;align=center;verticalAlign=top;childLayout=stackLayout;horizontal=1;startSize=26;horizontalStack=0;resizeParent=1;resizeLast=0;collapsible=1;marginBottom=0;rounded=0;shadow=0;strokeWidth=1;" parent="WIyWlLk6GJQsqaUBKTNV-1" vertex="1">
          <mxGeometry x="565" y="1604" width="174" height="162" as="geometry">
            <mxRectangle x="340" y="380" width="170" height="26" as="alternateBounds" />
          </mxGeometry>
        </mxCell>
        <mxCell id="VO69o7CRef01QfNxVuK8-15" value="- movie : Movie" style="text;strokeColor=none;fillColor=none;align=left;verticalAlign=top;spacingLeft=4;spacingRight=4;overflow=hidden;rotatable=0;points=[[0,0.5],[1,0.5]];portConstraint=eastwest;fontColor=#000000;" parent="VO69o7CRef01QfNxVuK8-34" vertex="1">
          <mxGeometry y="26" width="174" height="26" as="geometry" />
        </mxCell>
        <mxCell id="VO69o7CRef01QfNxVuK8-16" value="- user : Customer" style="text;strokeColor=none;fillColor=none;align=left;verticalAlign=top;spacingLeft=4;spacingRight=4;overflow=hidden;rotatable=0;points=[[0,0.5],[1,0.5]];portConstraint=eastwest;fontColor=#000000;" parent="VO69o7CRef01QfNxVuK8-34" vertex="1">
          <mxGeometry y="52" width="174" height="26" as="geometry" />
        </mxCell>
        <mxCell id="VO69o7CRef01QfNxVuK8-35" value="" style="line;html=1;strokeWidth=1;align=left;verticalAlign=middle;spacingTop=-1;spacingLeft=3;spacingRight=3;rotatable=0;labelPosition=right;points=[];portConstraint=eastwest;" parent="VO69o7CRef01QfNxVuK8-34" vertex="1">
          <mxGeometry y="78" width="174" height="8" as="geometry" />
        </mxCell>
        <mxCell id="VO69o7CRef01QfNxVuK8-36" value="+ doTransaction( ) : bool" style="text;strokeColor=none;fillColor=none;align=left;verticalAlign=top;spacingLeft=4;spacingRight=4;overflow=hidden;rotatable=0;points=[[0,0.5],[1,0.5]];portConstraint=eastwest;fontColor=#000000;" parent="VO69o7CRef01QfNxVuK8-34" vertex="1">
          <mxGeometry y="86" width="174" height="26" as="geometry" />
        </mxCell>
        <mxCell id="pLziMYB7hLuN-mU67Tzj-31" value="- virtual isValid(string info, &#xa;  HashTable&lt;char, Movie&gt;&amp;,&#xa;  HashTable&lt;int, Customer&gt;&amp;)" style="text;strokeColor=none;fillColor=none;align=left;verticalAlign=top;spacingLeft=4;spacingRight=4;overflow=hidden;rotatable=0;points=[[0,0.5],[1,0.5]];portConstraint=eastwest;" vertex="1" parent="VO69o7CRef01QfNxVuK8-34">
          <mxGeometry y="112" width="174" height="48" as="geometry" />
        </mxCell>
        <mxCell id="VO69o7CRef01QfNxVuK8-40" value="" style="endArrow=block;endSize=10;endFill=0;shadow=0;strokeWidth=1;rounded=0;edgeStyle=elbowEdgeStyle;elbow=vertical;exitX=0.5;exitY=0;exitDx=0;exitDy=0;entryX=0.5;entryY=1;entryDx=0;entryDy=0;" parent="WIyWlLk6GJQsqaUBKTNV-1" source="VO69o7CRef01QfNxVuK8-34" target="VO69o7CRef01QfNxVuK8-14" edge="1">
          <mxGeometry width="160" relative="1" as="geometry">
            <mxPoint x="255" y="1820" as="sourcePoint" />
            <mxPoint x="470" y="1710" as="targetPoint" />
            <Array as="points">
              <mxPoint x="560" y="1590" />
            </Array>
          </mxGeometry>
        </mxCell>
        <mxCell id="VO69o7CRef01QfNxVuK8-41" value="" style="endArrow=block;endSize=10;endFill=0;shadow=0;strokeWidth=1;rounded=0;edgeStyle=elbowEdgeStyle;elbow=vertical;exitX=0.5;exitY=0;exitDx=0;exitDy=0;entryX=0.5;entryY=1;entryDx=0;entryDy=0;" parent="WIyWlLk6GJQsqaUBKTNV-1" source="pLziMYB7hLuN-mU67Tzj-38" target="VO69o7CRef01QfNxVuK8-14" edge="1">
          <mxGeometry width="160" relative="1" as="geometry">
            <mxPoint x="400" y="1630" as="sourcePoint" />
            <mxPoint x="565" y="1700" as="targetPoint" />
            <Array as="points">
              <mxPoint x="460" y="1590" />
            </Array>
          </mxGeometry>
        </mxCell>
        <mxCell id="VO69o7CRef01QfNxVuK8-42" value="" style="endArrow=block;endSize=10;endFill=0;shadow=0;strokeWidth=1;rounded=0;edgeStyle=elbowEdgeStyle;elbow=vertical;entryX=0.5;entryY=1;entryDx=0;entryDy=0;exitX=0.5;exitY=0;exitDx=0;exitDy=0;" parent="WIyWlLk6GJQsqaUBKTNV-1" source="pLziMYB7hLuN-mU67Tzj-32" target="VO69o7CRef01QfNxVuK8-14" edge="1">
          <mxGeometry width="160" relative="1" as="geometry">
            <mxPoint x="740" y="1630" as="sourcePoint" />
            <mxPoint x="565" y="1700" as="targetPoint" />
            <Array as="points">
              <mxPoint x="660" y="1590" />
            </Array>
          </mxGeometry>
        </mxCell>
        <mxCell id="VO69o7CRef01QfNxVuK8-43" value="TransactionFactory" style="swimlane;fontStyle=0;align=center;verticalAlign=top;childLayout=stackLayout;horizontal=1;startSize=26;horizontalStack=0;resizeParent=1;resizeLast=0;collapsible=1;marginBottom=0;rounded=0;shadow=0;strokeWidth=1;" parent="WIyWlLk6GJQsqaUBKTNV-1" vertex="1">
          <mxGeometry x="626" y="1325" width="165" height="68" as="geometry">
            <mxRectangle x="500" y="120" width="160" height="26" as="alternateBounds" />
          </mxGeometry>
        </mxCell>
        <mxCell id="VO69o7CRef01QfNxVuK8-45" value="" style="line;html=1;strokeWidth=1;align=left;verticalAlign=middle;spacingTop=-1;spacingLeft=3;spacingRight=3;rotatable=0;labelPosition=right;points=[];portConstraint=eastwest;" parent="VO69o7CRef01QfNxVuK8-43" vertex="1">
          <mxGeometry y="26" width="165" height="8" as="geometry" />
        </mxCell>
        <mxCell id="VO69o7CRef01QfNxVuK8-46" value="+ createTransaction ( )" style="text;strokeColor=none;fillColor=none;align=left;verticalAlign=top;spacingLeft=4;spacingRight=4;overflow=hidden;rotatable=0;points=[[0,0.5],[1,0.5]];portConstraint=eastwest;" parent="VO69o7CRef01QfNxVuK8-43" vertex="1">
          <mxGeometry y="34" width="165" height="26" as="geometry" />
        </mxCell>
        <mxCell id="VO69o7CRef01QfNxVuK8-49" value="" style="endArrow=open;html=1;endSize=12;startArrow=diamondThin;startSize=14;startFill=1;edgeStyle=orthogonalEdgeStyle;align=left;verticalAlign=bottom;fontColor=#000000;entryX=0.5;entryY=0;entryDx=0;entryDy=0;exitX=0.5;exitY=1;exitDx=0;exitDy=0;exitPerimeter=0;" parent="WIyWlLk6GJQsqaUBKTNV-1" edge="1">
          <mxGeometry x="-0.3333" y="12" relative="1" as="geometry">
            <mxPoint x="469" y="1260" as="sourcePoint" />
            <mxPoint x="469" y="1320" as="targetPoint" />
            <mxPoint as="offset" />
          </mxGeometry>
        </mxCell>
        <mxCell id="VO69o7CRef01QfNxVuK8-50" value="" style="endArrow=none;html=1;fontColor=#000000;entryX=0.5;entryY=1;entryDx=0;entryDy=0;endFill=0;" parent="WIyWlLk6GJQsqaUBKTNV-1" target="VO69o7CRef01QfNxVuK8-43" edge="1">
          <mxGeometry width="50" height="50" relative="1" as="geometry">
            <mxPoint x="840" y="1765" as="sourcePoint" />
            <mxPoint x="530" y="1700" as="targetPoint" />
            <Array as="points">
              <mxPoint x="840" y="1800" />
              <mxPoint x="960" y="1800" />
              <mxPoint x="960" y="1560" />
              <mxPoint x="709" y="1560" />
            </Array>
          </mxGeometry>
        </mxCell>
        <mxCell id="VO69o7CRef01QfNxVuK8-51" value="" style="endArrow=none;html=1;fontColor=#000000;exitX=0.5;exitY=1;exitDx=0;exitDy=0;" parent="WIyWlLk6GJQsqaUBKTNV-1" source="VO69o7CRef01QfNxVuK8-34" edge="1">
          <mxGeometry width="50" height="50" relative="1" as="geometry">
            <mxPoint x="480" y="1750" as="sourcePoint" />
            <mxPoint x="870" y="1800" as="targetPoint" />
            <Array as="points">
              <mxPoint x="652" y="1800" />
            </Array>
          </mxGeometry>
        </mxCell>
        <mxCell id="VO69o7CRef01QfNxVuK8-52" value="" style="endArrow=none;html=1;fontColor=#000000;exitX=0.452;exitY=1.051;exitDx=0;exitDy=0;exitPerimeter=0;" parent="WIyWlLk6GJQsqaUBKTNV-1" source="pLziMYB7hLuN-mU67Tzj-43" edge="1">
          <mxGeometry width="50" height="50" relative="1" as="geometry">
            <mxPoint x="400" y="1700" as="sourcePoint" />
            <mxPoint x="670" y="1800" as="targetPoint" />
            <Array as="points">
              <mxPoint x="440" y="1800" />
            </Array>
          </mxGeometry>
        </mxCell>
        <mxCell id="VO69o7CRef01QfNxVuK8-53" value="" style="endArrow=none;html=1;fontColor=#000000;exitX=0.458;exitY=1.015;exitDx=0;exitDy=0;exitPerimeter=0;" parent="WIyWlLk6GJQsqaUBKTNV-1" edge="1" source="pLziMYB7hLuN-mU67Tzj-49">
          <mxGeometry width="50" height="50" relative="1" as="geometry">
            <mxPoint x="240" y="1700" as="sourcePoint" />
            <mxPoint x="470" y="1800" as="targetPoint" />
            <Array as="points">
              <mxPoint x="240" y="1800" />
            </Array>
          </mxGeometry>
        </mxCell>
        <mxCell id="VO69o7CRef01QfNxVuK8-54" value="" style="endArrow=none;html=1;fontColor=#000000;entryX=0;entryY=0.073;entryDx=0;entryDy=0;entryPerimeter=0;exitX=1.001;exitY=0.055;exitDx=0;exitDy=0;exitPerimeter=0;" parent="WIyWlLk6GJQsqaUBKTNV-1" edge="1">
          <mxGeometry width="50" height="50" relative="1" as="geometry">
            <mxPoint x="565.19" y="1337.9" as="sourcePoint" />
            <mxPoint x="626" y="1337.964" as="targetPoint" />
          </mxGeometry>
        </mxCell>
        <mxCell id="VO69o7CRef01QfNxVuK8-55" value="BSTree" style="swimlane;fontStyle=1;align=center;verticalAlign=top;childLayout=stackLayout;horizontal=1;startSize=26;horizontalStack=0;resizeParent=1;resizeParentMax=0;resizeLast=0;collapsible=1;marginBottom=0;" parent="WIyWlLk6GJQsqaUBKTNV-1" vertex="1">
          <mxGeometry x="100" y="2084.89" width="160" height="170" as="geometry" />
        </mxCell>
        <mxCell id="VO69o7CRef01QfNxVuK8-56" value="+ Node : Node Struct {&#xa;    - data : Movie&#xa;    - left : Node&#xa;    - right : Node&#xa;}" style="text;strokeColor=none;fillColor=none;align=left;verticalAlign=top;spacingLeft=4;spacingRight=4;overflow=hidden;rotatable=0;points=[[0,0.5],[1,0.5]];portConstraint=eastwest;" parent="VO69o7CRef01QfNxVuK8-55" vertex="1">
          <mxGeometry y="26" width="160" height="84" as="geometry" />
        </mxCell>
        <mxCell id="VO69o7CRef01QfNxVuK8-57" value="" style="line;strokeWidth=1;fillColor=none;align=left;verticalAlign=middle;spacingTop=-1;spacingLeft=3;spacingRight=3;rotatable=0;labelPosition=right;points=[];portConstraint=eastwest;" parent="VO69o7CRef01QfNxVuK8-55" vertex="1">
          <mxGeometry y="110" width="160" height="8" as="geometry" />
        </mxCell>
        <mxCell id="VO69o7CRef01QfNxVuK8-58" value="- insert (Movie)" style="text;strokeColor=none;fillColor=none;align=left;verticalAlign=top;spacingLeft=4;spacingRight=4;overflow=hidden;rotatable=0;points=[[0,0.5],[1,0.5]];portConstraint=eastwest;" parent="VO69o7CRef01QfNxVuK8-55" vertex="1">
          <mxGeometry y="118" width="160" height="26" as="geometry" />
        </mxCell>
        <mxCell id="VO69o7CRef01QfNxVuK8-59" value="- remove (Movie)" style="text;strokeColor=none;fillColor=none;align=left;verticalAlign=top;spacingLeft=4;spacingRight=4;overflow=hidden;rotatable=0;points=[[0,0.5],[1,0.5]];portConstraint=eastwest;" parent="VO69o7CRef01QfNxVuK8-55" vertex="1">
          <mxGeometry y="144" width="160" height="26" as="geometry" />
        </mxCell>
        <mxCell id="VO69o7CRef01QfNxVuK8-60" value="HashTable&lt;String, BST&gt;" style="swimlane;fontStyle=1;align=center;verticalAlign=top;childLayout=stackLayout;horizontal=1;startSize=26;horizontalStack=0;resizeParent=1;resizeParentMax=0;resizeLast=0;collapsible=1;marginBottom=0;" parent="WIyWlLk6GJQsqaUBKTNV-1" vertex="1">
          <mxGeometry x="100" y="1874.89" width="160" height="112" as="geometry" />
        </mxCell>
        <mxCell id="VO69o7CRef01QfNxVuK8-61" value="- media[] : array&lt;BST&gt;" style="text;strokeColor=none;fillColor=none;align=left;verticalAlign=top;spacingLeft=4;spacingRight=4;overflow=hidden;rotatable=0;points=[[0,0.5],[1,0.5]];portConstraint=eastwest;" parent="VO69o7CRef01QfNxVuK8-60" vertex="1">
          <mxGeometry y="26" width="160" height="26" as="geometry" />
        </mxCell>
        <mxCell id="VO69o7CRef01QfNxVuK8-62" value="" style="line;strokeWidth=1;fillColor=none;align=left;verticalAlign=middle;spacingTop=-1;spacingLeft=3;spacingRight=3;rotatable=0;labelPosition=right;points=[];portConstraint=eastwest;" parent="VO69o7CRef01QfNxVuK8-60" vertex="1">
          <mxGeometry y="52" width="160" height="8" as="geometry" />
        </mxCell>
        <mxCell id="VO69o7CRef01QfNxVuK8-63" value="- hash : ID" style="text;strokeColor=none;fillColor=none;align=left;verticalAlign=top;spacingLeft=4;spacingRight=4;overflow=hidden;rotatable=0;points=[[0,0.5],[1,0.5]];portConstraint=eastwest;" parent="VO69o7CRef01QfNxVuK8-60" vertex="1">
          <mxGeometry y="60" width="160" height="26" as="geometry" />
        </mxCell>
        <mxCell id="VO69o7CRef01QfNxVuK8-64" value="- retrieve ( ID ) : BST" style="text;strokeColor=none;fillColor=none;align=left;verticalAlign=top;spacingLeft=4;spacingRight=4;overflow=hidden;rotatable=0;points=[[0,0.5],[1,0.5]];portConstraint=eastwest;" parent="VO69o7CRef01QfNxVuK8-60" vertex="1">
          <mxGeometry y="86" width="160" height="26" as="geometry" />
        </mxCell>
        <mxCell id="VO69o7CRef01QfNxVuK8-65" value="Movie" style="swimlane;fontStyle=1;align=center;verticalAlign=top;childLayout=stackLayout;horizontal=1;startSize=26;horizontalStack=0;resizeParent=1;resizeParentMax=0;resizeLast=0;collapsible=1;marginBottom=0;" parent="WIyWlLk6GJQsqaUBKTNV-1" vertex="1">
          <mxGeometry x="350" y="2084.89" width="160" height="346" as="geometry" />
        </mxCell>
        <mxCell id="VO69o7CRef01QfNxVuK8-66" value="- title : string" style="text;strokeColor=none;fillColor=none;align=left;verticalAlign=top;spacingLeft=4;spacingRight=4;overflow=hidden;rotatable=0;points=[[0,0.5],[1,0.5]];portConstraint=eastwest;fontColor=#000000;" parent="VO69o7CRef01QfNxVuK8-65" vertex="1">
          <mxGeometry y="26" width="160" height="26" as="geometry" />
        </mxCell>
        <mxCell id="VO69o7CRef01QfNxVuK8-67" value="- releaseYear : int" style="text;strokeColor=none;fillColor=none;align=left;verticalAlign=top;spacingLeft=4;spacingRight=4;overflow=hidden;rotatable=0;points=[[0,0.5],[1,0.5]];portConstraint=eastwest;fontColor=#000000;" parent="VO69o7CRef01QfNxVuK8-65" vertex="1">
          <mxGeometry y="52" width="160" height="26" as="geometry" />
        </mxCell>
        <mxCell id="VO69o7CRef01QfNxVuK8-68" value="- stockInStore : int" style="text;strokeColor=none;fillColor=none;align=left;verticalAlign=top;spacingLeft=4;spacingRight=4;overflow=hidden;rotatable=0;points=[[0,0.5],[1,0.5]];portConstraint=eastwest;fontColor=#000000;" parent="VO69o7CRef01QfNxVuK8-65" vertex="1">
          <mxGeometry y="78" width="160" height="26" as="geometry" />
        </mxCell>
        <mxCell id="VO69o7CRef01QfNxVuK8-69" value="- director : string" style="text;strokeColor=none;fillColor=none;align=left;verticalAlign=top;spacingLeft=4;spacingRight=4;overflow=hidden;rotatable=0;points=[[0,0.5],[1,0.5]];portConstraint=eastwest;fontColor=#000000;" parent="VO69o7CRef01QfNxVuK8-65" vertex="1">
          <mxGeometry y="104" width="160" height="26" as="geometry" />
        </mxCell>
        <mxCell id="VO69o7CRef01QfNxVuK8-70" value="- genre : char" style="text;strokeColor=none;fillColor=none;align=left;verticalAlign=top;spacingLeft=4;spacingRight=4;overflow=hidden;rotatable=0;points=[[0,0.5],[1,0.5]];portConstraint=eastwest;fontColor=#000000;" parent="VO69o7CRef01QfNxVuK8-65" vertex="1">
          <mxGeometry y="130" width="160" height="26" as="geometry" />
        </mxCell>
        <mxCell id="VO69o7CRef01QfNxVuK8-71" value="- format : string" style="text;strokeColor=none;fillColor=none;align=left;verticalAlign=top;spacingLeft=4;spacingRight=4;overflow=hidden;rotatable=0;points=[[0,0.5],[1,0.5]];portConstraint=eastwest;fontColor=#000000;" parent="VO69o7CRef01QfNxVuK8-65" vertex="1">
          <mxGeometry y="156" width="160" height="26" as="geometry" />
        </mxCell>
        <mxCell id="VO69o7CRef01QfNxVuK8-73" value="" style="line;strokeWidth=1;fillColor=none;align=left;verticalAlign=middle;spacingTop=-1;spacingLeft=3;spacingRight=3;rotatable=0;labelPosition=right;points=[];portConstraint=eastwest;" parent="VO69o7CRef01QfNxVuK8-65" vertex="1">
          <mxGeometry y="182" width="160" height="8" as="geometry" />
        </mxCell>
        <mxCell id="pLziMYB7hLuN-mU67Tzj-24" value="+ Movie (string)" style="text;strokeColor=none;fillColor=none;align=left;verticalAlign=top;spacingLeft=4;spacingRight=4;overflow=hidden;rotatable=0;points=[[0,0.5],[1,0.5]];portConstraint=eastwest;fontColor=#000000;" vertex="1" parent="VO69o7CRef01QfNxVuK8-65">
          <mxGeometry y="190" width="160" height="26" as="geometry" />
        </mxCell>
        <mxCell id="pLziMYB7hLuN-mU67Tzj-25" value="+ ~Movie (string)" style="text;strokeColor=none;fillColor=none;align=left;verticalAlign=top;spacingLeft=4;spacingRight=4;overflow=hidden;rotatable=0;points=[[0,0.5],[1,0.5]];portConstraint=eastwest;fontColor=#000000;" vertex="1" parent="VO69o7CRef01QfNxVuK8-65">
          <mxGeometry y="216" width="160" height="26" as="geometry" />
        </mxCell>
        <mxCell id="VO69o7CRef01QfNxVuK8-74" value="+ get(Movie) : Movie" style="text;strokeColor=none;fillColor=none;align=left;verticalAlign=top;spacingLeft=4;spacingRight=4;overflow=hidden;rotatable=0;points=[[0,0.5],[1,0.5]];portConstraint=eastwest;" parent="VO69o7CRef01QfNxVuK8-65" vertex="1">
          <mxGeometry y="242" width="160" height="26" as="geometry" />
        </mxCell>
        <mxCell id="VO69o7CRef01QfNxVuK8-75" value="+ set(Movie) : Movie" style="text;strokeColor=none;fillColor=none;align=left;verticalAlign=top;spacingLeft=4;spacingRight=4;overflow=hidden;rotatable=0;points=[[0,0.5],[1,0.5]];portConstraint=eastwest;" parent="VO69o7CRef01QfNxVuK8-65" vertex="1">
          <mxGeometry y="268" width="160" height="26" as="geometry" />
        </mxCell>
        <mxCell id="VO69o7CRef01QfNxVuK8-76" value="+ operator=(Movie) " style="text;strokeColor=none;fillColor=none;align=left;verticalAlign=top;spacingLeft=4;spacingRight=4;overflow=hidden;rotatable=0;points=[[0,0.5],[1,0.5]];portConstraint=eastwest;" parent="VO69o7CRef01QfNxVuK8-65" vertex="1">
          <mxGeometry y="294" width="160" height="26" as="geometry" />
        </mxCell>
        <mxCell id="VO69o7CRef01QfNxVuK8-80" value="+ compareTo(Movie) : int" style="text;strokeColor=none;fillColor=none;align=left;verticalAlign=top;spacingLeft=4;spacingRight=4;overflow=hidden;rotatable=0;points=[[0,0.5],[1,0.5]];portConstraint=eastwest;" parent="VO69o7CRef01QfNxVuK8-65" vertex="1">
          <mxGeometry y="320" width="160" height="26" as="geometry" />
        </mxCell>
        <mxCell id="VO69o7CRef01QfNxVuK8-81" value="Comedy" style="swimlane;fontStyle=1;align=center;verticalAlign=top;childLayout=stackLayout;horizontal=1;startSize=26;horizontalStack=0;resizeParent=1;resizeParentMax=0;resizeLast=0;collapsible=1;marginBottom=0;" parent="WIyWlLk6GJQsqaUBKTNV-1" vertex="1">
          <mxGeometry x="100" y="2498.89" width="210" height="112" as="geometry" />
        </mxCell>
        <mxCell id="VO69o7CRef01QfNxVuK8-82" value="" style="line;strokeWidth=1;fillColor=none;align=left;verticalAlign=middle;spacingTop=-1;spacingLeft=3;spacingRight=3;rotatable=0;labelPosition=right;points=[];portConstraint=eastwest;" parent="VO69o7CRef01QfNxVuK8-81" vertex="1">
          <mxGeometry y="26" width="210" height="8" as="geometry" />
        </mxCell>
        <mxCell id="VO69o7CRef01QfNxVuK8-83" value="+ Comedy (string) " style="text;strokeColor=none;fillColor=none;align=left;verticalAlign=top;spacingLeft=4;spacingRight=4;overflow=hidden;rotatable=0;points=[[0,0.5],[1,0.5]];portConstraint=eastwest;" parent="VO69o7CRef01QfNxVuK8-81" vertex="1">
          <mxGeometry y="34" width="210" height="26" as="geometry" />
        </mxCell>
        <mxCell id="pLziMYB7hLuN-mU67Tzj-26" value="+ ~Comedy ( ) " style="text;strokeColor=none;fillColor=none;align=left;verticalAlign=top;spacingLeft=4;spacingRight=4;overflow=hidden;rotatable=0;points=[[0,0.5],[1,0.5]];portConstraint=eastwest;" vertex="1" parent="VO69o7CRef01QfNxVuK8-81">
          <mxGeometry y="60" width="210" height="26" as="geometry" />
        </mxCell>
        <mxCell id="VO69o7CRef01QfNxVuK8-84" value="+ virtual compareTo(Comedy) : bool" style="text;strokeColor=none;fillColor=none;align=left;verticalAlign=top;spacingLeft=4;spacingRight=4;overflow=hidden;rotatable=0;points=[[0,0.5],[1,0.5]];portConstraint=eastwest;" parent="VO69o7CRef01QfNxVuK8-81" vertex="1">
          <mxGeometry y="86" width="210" height="26" as="geometry" />
        </mxCell>
        <mxCell id="VO69o7CRef01QfNxVuK8-85" value="Drama" style="swimlane;fontStyle=1;align=center;verticalAlign=top;childLayout=stackLayout;horizontal=1;startSize=26;horizontalStack=0;resizeParent=1;resizeParentMax=0;resizeLast=0;collapsible=1;marginBottom=0;" parent="WIyWlLk6GJQsqaUBKTNV-1" vertex="1">
          <mxGeometry x="350" y="2498.89" width="160" height="112" as="geometry" />
        </mxCell>
        <mxCell id="VO69o7CRef01QfNxVuK8-86" value="" style="line;strokeWidth=1;fillColor=none;align=left;verticalAlign=middle;spacingTop=-1;spacingLeft=3;spacingRight=3;rotatable=0;labelPosition=right;points=[];portConstraint=eastwest;" parent="VO69o7CRef01QfNxVuK8-85" vertex="1">
          <mxGeometry y="26" width="160" height="8" as="geometry" />
        </mxCell>
        <mxCell id="VO69o7CRef01QfNxVuK8-87" value="+ Drama (string)" style="text;strokeColor=none;fillColor=none;align=left;verticalAlign=top;spacingLeft=4;spacingRight=4;overflow=hidden;rotatable=0;points=[[0,0.5],[1,0.5]];portConstraint=eastwest;" parent="VO69o7CRef01QfNxVuK8-85" vertex="1">
          <mxGeometry y="34" width="160" height="26" as="geometry" />
        </mxCell>
        <mxCell id="pLziMYB7hLuN-mU67Tzj-27" value="+ ~Drama ( )" style="text;strokeColor=none;fillColor=none;align=left;verticalAlign=top;spacingLeft=4;spacingRight=4;overflow=hidden;rotatable=0;points=[[0,0.5],[1,0.5]];portConstraint=eastwest;" vertex="1" parent="VO69o7CRef01QfNxVuK8-85">
          <mxGeometry y="60" width="160" height="26" as="geometry" />
        </mxCell>
        <mxCell id="VO69o7CRef01QfNxVuK8-88" value="+ virtual compareTo(Drama) : bool" style="text;strokeColor=none;fillColor=none;align=left;verticalAlign=top;spacingLeft=4;spacingRight=4;overflow=hidden;rotatable=0;points=[[0,0.5],[1,0.5]];portConstraint=eastwest;" parent="VO69o7CRef01QfNxVuK8-85" vertex="1">
          <mxGeometry y="86" width="160" height="26" as="geometry" />
        </mxCell>
        <mxCell id="VO69o7CRef01QfNxVuK8-89" value="Classics" style="swimlane;fontStyle=1;align=center;verticalAlign=top;childLayout=stackLayout;horizontal=1;startSize=26;horizontalStack=0;resizeParent=1;resizeParentMax=0;resizeLast=0;collapsible=1;marginBottom=0;" parent="WIyWlLk6GJQsqaUBKTNV-1" vertex="1">
          <mxGeometry x="550" y="2498.89" width="210" height="164" as="geometry" />
        </mxCell>
        <mxCell id="VO69o7CRef01QfNxVuK8-90" value="- majorActor : string" style="text;strokeColor=none;fillColor=none;align=left;verticalAlign=top;spacingLeft=4;spacingRight=4;overflow=hidden;rotatable=0;points=[[0,0.5],[1,0.5]];portConstraint=eastwest;fontColor=#000000;" parent="VO69o7CRef01QfNxVuK8-89" vertex="1">
          <mxGeometry y="26" width="210" height="26" as="geometry" />
        </mxCell>
        <mxCell id="VO69o7CRef01QfNxVuK8-91" value="- releaseMonth : int" style="text;strokeColor=none;fillColor=none;align=left;verticalAlign=top;spacingLeft=4;spacingRight=4;overflow=hidden;rotatable=0;points=[[0,0.5],[1,0.5]];portConstraint=eastwest;fontColor=#000000;" parent="VO69o7CRef01QfNxVuK8-89" vertex="1">
          <mxGeometry y="52" width="210" height="26" as="geometry" />
        </mxCell>
        <mxCell id="VO69o7CRef01QfNxVuK8-92" value="" style="line;strokeWidth=1;fillColor=none;align=left;verticalAlign=middle;spacingTop=-1;spacingLeft=3;spacingRight=3;rotatable=0;labelPosition=right;points=[];portConstraint=eastwest;" parent="VO69o7CRef01QfNxVuK8-89" vertex="1">
          <mxGeometry y="78" width="210" height="8" as="geometry" />
        </mxCell>
        <mxCell id="VO69o7CRef01QfNxVuK8-93" value="+ Classic (string)" style="text;strokeColor=none;fillColor=none;align=left;verticalAlign=top;spacingLeft=4;spacingRight=4;overflow=hidden;rotatable=0;points=[[0,0.5],[1,0.5]];portConstraint=eastwest;" parent="VO69o7CRef01QfNxVuK8-89" vertex="1">
          <mxGeometry y="86" width="210" height="26" as="geometry" />
        </mxCell>
        <mxCell id="pLziMYB7hLuN-mU67Tzj-28" value="+ ~Classic ( )" style="text;strokeColor=none;fillColor=none;align=left;verticalAlign=top;spacingLeft=4;spacingRight=4;overflow=hidden;rotatable=0;points=[[0,0.5],[1,0.5]];portConstraint=eastwest;" vertex="1" parent="VO69o7CRef01QfNxVuK8-89">
          <mxGeometry y="112" width="210" height="26" as="geometry" />
        </mxCell>
        <mxCell id="VO69o7CRef01QfNxVuK8-94" value="+ virtual compareTo(Classics) : bool" style="text;strokeColor=none;fillColor=none;align=left;verticalAlign=top;spacingLeft=4;spacingRight=4;overflow=hidden;rotatable=0;points=[[0,0.5],[1,0.5]];portConstraint=eastwest;" parent="VO69o7CRef01QfNxVuK8-89" vertex="1">
          <mxGeometry y="138" width="210" height="26" as="geometry" />
        </mxCell>
        <mxCell id="VO69o7CRef01QfNxVuK8-95" value="" style="endArrow=block;endSize=16;endFill=0;html=1;edgeStyle=orthogonalEdgeStyle;exitX=0.48;exitY=0;exitDx=0;exitDy=0;exitPerimeter=0;" parent="WIyWlLk6GJQsqaUBKTNV-1" source="VO69o7CRef01QfNxVuK8-81" edge="1">
          <mxGeometry x="0.9427" y="45" width="160" relative="1" as="geometry">
            <mxPoint x="221" y="2498.89" as="sourcePoint" />
            <mxPoint x="426" y="2432.89" as="targetPoint" />
            <Array as="points">
              <mxPoint x="201" y="2472.89" />
              <mxPoint x="426" y="2472.89" />
            </Array>
            <mxPoint y="1" as="offset" />
          </mxGeometry>
        </mxCell>
        <mxCell id="VO69o7CRef01QfNxVuK8-96" value="" style="endArrow=block;endSize=16;endFill=0;html=1;exitX=0.476;exitY=0;exitDx=0;exitDy=0;exitPerimeter=0;edgeStyle=orthogonalEdgeStyle;" parent="WIyWlLk6GJQsqaUBKTNV-1" edge="1">
          <mxGeometry x="0.9427" y="45" width="160" relative="1" as="geometry">
            <mxPoint x="631.9200000000001" y="2498.89" as="sourcePoint" />
            <mxPoint x="426" y="2432.89" as="targetPoint" />
            <Array as="points">
              <mxPoint x="632" y="2472.89" />
              <mxPoint x="426" y="2472.89" />
            </Array>
            <mxPoint y="1" as="offset" />
          </mxGeometry>
        </mxCell>
        <mxCell id="VO69o7CRef01QfNxVuK8-97" value="" style="endArrow=block;endSize=16;endFill=0;html=1;exitX=0.474;exitY=0.004;exitDx=0;exitDy=0;exitPerimeter=0;" parent="WIyWlLk6GJQsqaUBKTNV-1" edge="1" source="VO69o7CRef01QfNxVuK8-85">
          <mxGeometry x="0.9427" y="45" width="160" relative="1" as="geometry">
            <mxPoint x="425.3600000000001" y="2496.632" as="sourcePoint" />
            <mxPoint x="426" y="2432.89" as="targetPoint" />
            <Array as="points" />
            <mxPoint y="1" as="offset" />
          </mxGeometry>
        </mxCell>
        <mxCell id="VO69o7CRef01QfNxVuK8-98" value="1" style="endArrow=open;html=1;endSize=12;startArrow=diamondThin;startSize=14;startFill=1;edgeStyle=orthogonalEdgeStyle;align=left;verticalAlign=bottom;fontColor=#000000;exitX=1.021;exitY=0.172;exitDx=0;exitDy=0;exitPerimeter=0;entryX=0.5;entryY=0;entryDx=0;entryDy=0;" parent="WIyWlLk6GJQsqaUBKTNV-1" source="VO69o7CRef01QfNxVuK8-56" target="VO69o7CRef01QfNxVuK8-65" edge="1">
          <mxGeometry x="-1" y="3" relative="1" as="geometry">
            <mxPoint x="320" y="1994.89" as="sourcePoint" />
            <mxPoint x="500" y="2004.89" as="targetPoint" />
            <Array as="points">
              <mxPoint x="310" y="2124.89" />
              <mxPoint x="310" y="2054.89" />
              <mxPoint x="430" y="2054.89" />
            </Array>
          </mxGeometry>
        </mxCell>
        <mxCell id="VO69o7CRef01QfNxVuK8-99" value="" style="endArrow=open;shadow=0;strokeWidth=1;strokeColor=#000000;rounded=0;endFill=1;edgeStyle=orthogonalEdgeStyle;elbow=vertical;exitX=0.463;exitY=1;exitDx=0;exitDy=0;exitPerimeter=0;entryX=0.463;entryY=0;entryDx=0;entryDy=0;entryPerimeter=0;" parent="WIyWlLk6GJQsqaUBKTNV-1" source="VO69o7CRef01QfNxVuK8-64" target="VO69o7CRef01QfNxVuK8-55" edge="1">
          <mxGeometry x="0.5" y="41" relative="1" as="geometry">
            <mxPoint x="300" y="1453.89" as="sourcePoint" />
            <mxPoint x="360" y="1874.89" as="targetPoint" />
            <mxPoint x="-40" y="32" as="offset" />
          </mxGeometry>
        </mxCell>
        <mxCell id="VO69o7CRef01QfNxVuK8-100" value="0..3" style="resizable=0;align=left;verticalAlign=bottom;labelBackgroundColor=none;fontSize=12;" parent="VO69o7CRef01QfNxVuK8-99" connectable="0" vertex="1">
          <mxGeometry x="-1" relative="1" as="geometry">
            <mxPoint y="18" as="offset" />
          </mxGeometry>
        </mxCell>
        <mxCell id="VO69o7CRef01QfNxVuK8-101" value="1" style="resizable=0;align=right;verticalAlign=bottom;labelBackgroundColor=none;fontSize=12;" parent="VO69o7CRef01QfNxVuK8-99" connectable="0" vertex="1">
          <mxGeometry x="1" relative="1" as="geometry">
            <mxPoint x="-7" y="4" as="offset" />
          </mxGeometry>
        </mxCell>
        <mxCell id="VO69o7CRef01QfNxVuK8-102" value="" style="endArrow=open;shadow=0;strokeWidth=1;strokeColor=#000000;rounded=0;endFill=1;edgeStyle=orthogonalEdgeStyle;elbow=vertical;entryX=0.5;entryY=0;entryDx=0;entryDy=0;exitX=1;exitY=0.5;exitDx=0;exitDy=0;" parent="WIyWlLk6GJQsqaUBKTNV-1" source="VO69o7CRef01QfNxVuK8-3" target="VO69o7CRef01QfNxVuK8-60" edge="1">
          <mxGeometry x="0.5" y="41" relative="1" as="geometry">
            <mxPoint x="300" y="1359" as="sourcePoint" />
            <mxPoint x="400" y="1239" as="targetPoint" />
            <mxPoint x="-40" y="32" as="offset" />
            <Array as="points">
              <mxPoint x="280" y="1351" />
              <mxPoint x="280" y="1570" />
              <mxPoint x="130" y="1570" />
              <mxPoint x="130" y="1840" />
              <mxPoint x="180" y="1840" />
            </Array>
          </mxGeometry>
        </mxCell>
        <mxCell id="VO69o7CRef01QfNxVuK8-103" value="0..1" style="resizable=0;align=left;verticalAlign=bottom;labelBackgroundColor=none;fontSize=12;" parent="VO69o7CRef01QfNxVuK8-102" connectable="0" vertex="1">
          <mxGeometry x="-1" relative="1" as="geometry">
            <mxPoint y="1" as="offset" />
          </mxGeometry>
        </mxCell>
        <mxCell id="VO69o7CRef01QfNxVuK8-104" value="1" style="resizable=0;align=right;verticalAlign=bottom;labelBackgroundColor=none;fontSize=12;" parent="VO69o7CRef01QfNxVuK8-102" connectable="0" vertex="1">
          <mxGeometry x="1" relative="1" as="geometry">
            <mxPoint x="14" y="-6.9399999999999995" as="offset" />
          </mxGeometry>
        </mxCell>
        <mxCell id="VO69o7CRef01QfNxVuK8-105" value="HashTable&lt;Integer, Customer&gt;" style="swimlane;fontStyle=1;align=center;verticalAlign=top;childLayout=stackLayout;horizontal=1;startSize=26;horizontalStack=0;resizeParent=1;resizeParentMax=0;resizeLast=0;collapsible=1;marginBottom=0;" parent="WIyWlLk6GJQsqaUBKTNV-1" vertex="1">
          <mxGeometry x="310" y="1874.89" width="200" height="112" as="geometry" />
        </mxCell>
        <mxCell id="VO69o7CRef01QfNxVuK8-106" value="- customers[] : array&lt;BST&gt;" style="text;strokeColor=none;fillColor=none;align=left;verticalAlign=top;spacingLeft=4;spacingRight=4;overflow=hidden;rotatable=0;points=[[0,0.5],[1,0.5]];portConstraint=eastwest;" parent="VO69o7CRef01QfNxVuK8-105" vertex="1">
          <mxGeometry y="26" width="200" height="26" as="geometry" />
        </mxCell>
        <mxCell id="VO69o7CRef01QfNxVuK8-107" value="" style="line;strokeWidth=1;fillColor=none;align=left;verticalAlign=middle;spacingTop=-1;spacingLeft=3;spacingRight=3;rotatable=0;labelPosition=right;points=[];portConstraint=eastwest;" parent="VO69o7CRef01QfNxVuK8-105" vertex="1">
          <mxGeometry y="52" width="200" height="8" as="geometry" />
        </mxCell>
        <mxCell id="VO69o7CRef01QfNxVuK8-108" value="- hash : ID" style="text;strokeColor=none;fillColor=none;align=left;verticalAlign=top;spacingLeft=4;spacingRight=4;overflow=hidden;rotatable=0;points=[[0,0.5],[1,0.5]];portConstraint=eastwest;" parent="VO69o7CRef01QfNxVuK8-105" vertex="1">
          <mxGeometry y="60" width="200" height="26" as="geometry" />
        </mxCell>
        <mxCell id="VO69o7CRef01QfNxVuK8-109" value="- retrieve ( ID ) : BST" style="text;strokeColor=none;fillColor=none;align=left;verticalAlign=top;spacingLeft=4;spacingRight=4;overflow=hidden;rotatable=0;points=[[0,0.5],[1,0.5]];portConstraint=eastwest;" parent="VO69o7CRef01QfNxVuK8-105" vertex="1">
          <mxGeometry y="86" width="200" height="26" as="geometry" />
        </mxCell>
        <mxCell id="VO69o7CRef01QfNxVuK8-110" value="Customer" style="swimlane;fontStyle=1;align=center;verticalAlign=top;childLayout=stackLayout;horizontal=1;startSize=26;horizontalStack=0;resizeParent=1;resizeParentMax=0;resizeLast=0;collapsible=1;marginBottom=0;" parent="WIyWlLk6GJQsqaUBKTNV-1" vertex="1">
          <mxGeometry x="565" y="1874.89" width="265" height="164" as="geometry" />
        </mxCell>
        <mxCell id="VO69o7CRef01QfNxVuK8-111" value="- firstName : string" style="text;strokeColor=none;fillColor=none;align=left;verticalAlign=top;spacingLeft=4;spacingRight=4;overflow=hidden;rotatable=0;points=[[0,0.5],[1,0.5]];portConstraint=eastwest;" parent="VO69o7CRef01QfNxVuK8-110" vertex="1">
          <mxGeometry y="26" width="265" height="26" as="geometry" />
        </mxCell>
        <mxCell id="pLziMYB7hLuN-mU67Tzj-7" value="- lastName : string" style="text;strokeColor=none;fillColor=none;align=left;verticalAlign=top;spacingLeft=4;spacingRight=4;overflow=hidden;rotatable=0;points=[[0,0.5],[1,0.5]];portConstraint=eastwest;" vertex="1" parent="VO69o7CRef01QfNxVuK8-110">
          <mxGeometry y="52" width="265" height="26" as="geometry" />
        </mxCell>
        <mxCell id="VO69o7CRef01QfNxVuK8-112" value="- userID : int" style="text;strokeColor=none;fillColor=none;align=left;verticalAlign=top;spacingLeft=4;spacingRight=4;overflow=hidden;rotatable=0;points=[[0,0.5],[1,0.5]];portConstraint=eastwest;" parent="VO69o7CRef01QfNxVuK8-110" vertex="1">
          <mxGeometry y="78" width="265" height="26" as="geometry" />
        </mxCell>
        <mxCell id="VO69o7CRef01QfNxVuK8-113" value="- transactionHistory : LinkedList&lt;Transaction&gt;" style="text;strokeColor=none;fillColor=none;align=left;verticalAlign=top;spacingLeft=4;spacingRight=4;overflow=hidden;rotatable=0;points=[[0,0.5],[1,0.5]];portConstraint=eastwest;" parent="VO69o7CRef01QfNxVuK8-110" vertex="1">
          <mxGeometry y="104" width="265" height="26" as="geometry" />
        </mxCell>
        <mxCell id="VO69o7CRef01QfNxVuK8-114" value="" style="line;strokeWidth=1;fillColor=none;align=left;verticalAlign=middle;spacingTop=-1;spacingLeft=3;spacingRight=3;rotatable=0;labelPosition=right;points=[];portConstraint=eastwest;" parent="VO69o7CRef01QfNxVuK8-110" vertex="1">
          <mxGeometry y="130" width="265" height="8" as="geometry" />
        </mxCell>
        <mxCell id="VO69o7CRef01QfNxVuK8-115" value="+ Customer (string)" style="text;strokeColor=none;fillColor=none;align=left;verticalAlign=top;spacingLeft=4;spacingRight=4;overflow=hidden;rotatable=0;points=[[0,0.5],[1,0.5]];portConstraint=eastwest;" parent="VO69o7CRef01QfNxVuK8-110" vertex="1">
          <mxGeometry y="138" width="265" height="26" as="geometry" />
        </mxCell>
        <mxCell id="VO69o7CRef01QfNxVuK8-116" value="" style="endArrow=open;shadow=0;strokeWidth=1;strokeColor=#000000;rounded=0;endFill=1;edgeStyle=orthogonalEdgeStyle;elbow=vertical;entryX=0.5;entryY=0;entryDx=0;entryDy=0;exitX=1;exitY=0.5;exitDx=0;exitDy=0;" parent="WIyWlLk6GJQsqaUBKTNV-1" source="VO69o7CRef01QfNxVuK8-2" target="VO69o7CRef01QfNxVuK8-105" edge="1">
          <mxGeometry x="0.5" y="41" relative="1" as="geometry">
            <mxPoint x="305.0599999999998" y="1381" as="sourcePoint" />
            <mxPoint x="245.05999999999977" y="1780" as="targetPoint" />
            <mxPoint x="-40" y="32" as="offset" />
            <Array as="points">
              <mxPoint x="300" y="1325" />
              <mxPoint x="300" y="1580" />
              <mxPoint x="145" y="1580" />
              <mxPoint x="145" y="1820" />
              <mxPoint x="410" y="1820" />
            </Array>
          </mxGeometry>
        </mxCell>
        <mxCell id="VO69o7CRef01QfNxVuK8-117" value="0..1" style="resizable=0;align=left;verticalAlign=bottom;labelBackgroundColor=none;fontSize=12;" parent="VO69o7CRef01QfNxVuK8-116" connectable="0" vertex="1">
          <mxGeometry x="-1" relative="1" as="geometry">
            <mxPoint y="1" as="offset" />
          </mxGeometry>
        </mxCell>
        <mxCell id="VO69o7CRef01QfNxVuK8-118" value="1" style="resizable=0;align=right;verticalAlign=bottom;labelBackgroundColor=none;fontSize=12;" parent="VO69o7CRef01QfNxVuK8-116" connectable="0" vertex="1">
          <mxGeometry x="1" relative="1" as="geometry">
            <mxPoint x="13" y="-15" as="offset" />
          </mxGeometry>
        </mxCell>
        <mxCell id="VO69o7CRef01QfNxVuK8-119" value="" style="endArrow=open;shadow=0;strokeWidth=1;strokeColor=#000000;rounded=0;endFill=1;edgeStyle=orthogonalEdgeStyle;elbow=vertical;exitX=1;exitY=0.25;exitDx=0;exitDy=0;entryX=0;entryY=0.079;entryDx=0;entryDy=0;entryPerimeter=0;" parent="WIyWlLk6GJQsqaUBKTNV-1" source="VO69o7CRef01QfNxVuK8-105" target="VO69o7CRef01QfNxVuK8-111" edge="1">
          <mxGeometry x="0.5" y="41" relative="1" as="geometry">
            <mxPoint x="184.07999999999993" y="1996.8899999999996" as="sourcePoint" />
            <mxPoint x="184.07999999999993" y="2054.89" as="targetPoint" />
            <mxPoint x="-40" y="32" as="offset" />
          </mxGeometry>
        </mxCell>
        <mxCell id="VO69o7CRef01QfNxVuK8-120" value="0..n" style="resizable=0;align=left;verticalAlign=bottom;labelBackgroundColor=none;fontSize=12;" parent="VO69o7CRef01QfNxVuK8-119" connectable="0" vertex="1">
          <mxGeometry x="-1" relative="1" as="geometry">
            <mxPoint y="18" as="offset" />
          </mxGeometry>
        </mxCell>
        <mxCell id="VO69o7CRef01QfNxVuK8-121" value="n" style="resizable=0;align=right;verticalAlign=bottom;labelBackgroundColor=none;fontSize=12;" parent="VO69o7CRef01QfNxVuK8-119" connectable="0" vertex="1">
          <mxGeometry x="1" relative="1" as="geometry">
            <mxPoint x="-7" y="1.9499999999999993" as="offset" />
          </mxGeometry>
        </mxCell>
        <mxCell id="pLziMYB7hLuN-mU67Tzj-0" value="Driver" style="swimlane;fontStyle=1;align=center;verticalAlign=top;childLayout=stackLayout;horizontal=1;startSize=26;horizontalStack=0;resizeParent=1;resizeParentMax=0;resizeLast=0;collapsible=1;marginBottom=0;" vertex="1" parent="WIyWlLk6GJQsqaUBKTNV-1">
          <mxGeometry x="60" y="1169" width="160" height="60" as="geometry" />
        </mxCell>
        <mxCell id="pLziMYB7hLuN-mU67Tzj-2" value="" style="line;strokeWidth=1;fillColor=none;align=left;verticalAlign=middle;spacingTop=-1;spacingLeft=3;spacingRight=3;rotatable=0;labelPosition=right;points=[];portConstraint=eastwest;" vertex="1" parent="pLziMYB7hLuN-mU67Tzj-0">
          <mxGeometry y="26" width="160" height="8" as="geometry" />
        </mxCell>
        <mxCell id="pLziMYB7hLuN-mU67Tzj-3" value="+ main ( )" style="text;strokeColor=none;fillColor=none;align=left;verticalAlign=top;spacingLeft=4;spacingRight=4;overflow=hidden;rotatable=0;points=[[0,0.5],[1,0.5]];portConstraint=eastwest;" vertex="1" parent="pLziMYB7hLuN-mU67Tzj-0">
          <mxGeometry y="34" width="160" height="26" as="geometry" />
        </mxCell>
        <mxCell id="pLziMYB7hLuN-mU67Tzj-4" value="" style="endArrow=classic;html=1;entryX=0.5;entryY=0;entryDx=0;entryDy=0;edgeStyle=orthogonalEdgeStyle;exitX=1;exitY=0.25;exitDx=0;exitDy=0;" edge="1" parent="WIyWlLk6GJQsqaUBKTNV-1" source="pLziMYB7hLuN-mU67Tzj-0" target="VO69o7CRef01QfNxVuK8-0">
          <mxGeometry width="50" height="50" relative="1" as="geometry">
            <mxPoint x="240" y="1190" as="sourcePoint" />
            <mxPoint x="390" y="1410" as="targetPoint" />
            <Array as="points">
              <mxPoint x="240" y="1184" />
              <mxPoint x="240" y="1240" />
              <mxPoint x="115" y="1240" />
            </Array>
          </mxGeometry>
        </mxCell>
        <mxCell id="pLziMYB7hLuN-mU67Tzj-8" value="MovieFactory" style="swimlane;fontStyle=0;align=center;verticalAlign=top;childLayout=stackLayout;horizontal=1;startSize=26;horizontalStack=0;resizeParent=1;resizeLast=0;collapsible=1;marginBottom=0;rounded=0;shadow=0;strokeWidth=1;" vertex="1" parent="WIyWlLk6GJQsqaUBKTNV-1">
          <mxGeometry x="566" y="2084.89" width="165" height="70" as="geometry">
            <mxRectangle x="500" y="120" width="160" height="26" as="alternateBounds" />
          </mxGeometry>
        </mxCell>
        <mxCell id="pLziMYB7hLuN-mU67Tzj-10" value="" style="line;html=1;strokeWidth=1;align=left;verticalAlign=middle;spacingTop=-1;spacingLeft=3;spacingRight=3;rotatable=0;labelPosition=right;points=[];portConstraint=eastwest;" vertex="1" parent="pLziMYB7hLuN-mU67Tzj-8">
          <mxGeometry y="26" width="165" height="8" as="geometry" />
        </mxCell>
        <mxCell id="pLziMYB7hLuN-mU67Tzj-11" value="+ createMovie (String)" style="text;strokeColor=none;fillColor=none;align=left;verticalAlign=top;spacingLeft=4;spacingRight=4;overflow=hidden;rotatable=0;points=[[0,0.5],[1,0.5]];portConstraint=eastwest;" vertex="1" parent="pLziMYB7hLuN-mU67Tzj-8">
          <mxGeometry y="34" width="165" height="26" as="geometry" />
        </mxCell>
        <mxCell id="pLziMYB7hLuN-mU67Tzj-14" value="" style="endArrow=none;html=1;fontColor=#000000;endFill=0;exitX=0.421;exitY=1.03;exitDx=0;exitDy=0;exitPerimeter=0;" edge="1" parent="WIyWlLk6GJQsqaUBKTNV-1" source="VO69o7CRef01QfNxVuK8-94">
          <mxGeometry width="50" height="50" relative="1" as="geometry">
            <mxPoint x="625" y="2694.89" as="sourcePoint" />
            <mxPoint x="638" y="2154.89" as="targetPoint" />
            <Array as="points">
              <mxPoint x="638" y="2684.89" />
              <mxPoint x="790" y="2684.89" />
              <mxPoint x="790" y="2404.89" />
              <mxPoint x="638" y="2404.89" />
            </Array>
          </mxGeometry>
        </mxCell>
        <mxCell id="pLziMYB7hLuN-mU67Tzj-15" value="" style="endArrow=none;html=1;fontColor=#000000;exitX=0.499;exitY=0.996;exitDx=0;exitDy=0;exitPerimeter=0;" edge="1" parent="WIyWlLk6GJQsqaUBKTNV-1" source="VO69o7CRef01QfNxVuK8-88">
          <mxGeometry width="50" height="50" relative="1" as="geometry">
            <mxPoint x="430.0000000000002" y="2569.89" as="sourcePoint" />
            <mxPoint x="650" y="2684.89" as="targetPoint" />
            <Array as="points">
              <mxPoint x="430" y="2684.89" />
            </Array>
          </mxGeometry>
        </mxCell>
        <mxCell id="pLziMYB7hLuN-mU67Tzj-16" value="" style="endArrow=none;html=1;fontColor=#000000;exitX=0.5;exitY=0.981;exitDx=0;exitDy=0;exitPerimeter=0;" edge="1" parent="WIyWlLk6GJQsqaUBKTNV-1" source="VO69o7CRef01QfNxVuK8-84">
          <mxGeometry width="50" height="50" relative="1" as="geometry">
            <mxPoint x="219.99999999999977" y="2569.89" as="sourcePoint" />
            <mxPoint x="450" y="2684.89" as="targetPoint" />
            <Array as="points">
              <mxPoint x="205" y="2684.89" />
            </Array>
          </mxGeometry>
        </mxCell>
        <mxCell id="pLziMYB7hLuN-mU67Tzj-17" value="" style="endArrow=none;html=1;fontColor=#FF3333;" edge="1" parent="WIyWlLk6GJQsqaUBKTNV-1">
          <mxGeometry width="50" height="50" relative="1" as="geometry">
            <mxPoint x="510" y="2094.89" as="sourcePoint" />
            <mxPoint x="566" y="2094.89" as="targetPoint" />
          </mxGeometry>
        </mxCell>
        <mxCell id="pLziMYB7hLuN-mU67Tzj-32" value="Return" style="swimlane;fontStyle=0;align=center;verticalAlign=top;childLayout=stackLayout;horizontal=1;startSize=26;horizontalStack=0;resizeParent=1;resizeLast=0;collapsible=1;marginBottom=0;rounded=0;shadow=0;strokeWidth=1;" vertex="1" parent="WIyWlLk6GJQsqaUBKTNV-1">
          <mxGeometry x="760" y="1604" width="174" height="162" as="geometry">
            <mxRectangle x="340" y="380" width="170" height="26" as="alternateBounds" />
          </mxGeometry>
        </mxCell>
        <mxCell id="pLziMYB7hLuN-mU67Tzj-33" value="- movie : Movie" style="text;strokeColor=none;fillColor=none;align=left;verticalAlign=top;spacingLeft=4;spacingRight=4;overflow=hidden;rotatable=0;points=[[0,0.5],[1,0.5]];portConstraint=eastwest;fontColor=#000000;" vertex="1" parent="pLziMYB7hLuN-mU67Tzj-32">
          <mxGeometry y="26" width="174" height="26" as="geometry" />
        </mxCell>
        <mxCell id="pLziMYB7hLuN-mU67Tzj-34" value="- user : Customer" style="text;strokeColor=none;fillColor=none;align=left;verticalAlign=top;spacingLeft=4;spacingRight=4;overflow=hidden;rotatable=0;points=[[0,0.5],[1,0.5]];portConstraint=eastwest;fontColor=#000000;" vertex="1" parent="pLziMYB7hLuN-mU67Tzj-32">
          <mxGeometry y="52" width="174" height="26" as="geometry" />
        </mxCell>
        <mxCell id="pLziMYB7hLuN-mU67Tzj-35" value="" style="line;html=1;strokeWidth=1;align=left;verticalAlign=middle;spacingTop=-1;spacingLeft=3;spacingRight=3;rotatable=0;labelPosition=right;points=[];portConstraint=eastwest;" vertex="1" parent="pLziMYB7hLuN-mU67Tzj-32">
          <mxGeometry y="78" width="174" height="8" as="geometry" />
        </mxCell>
        <mxCell id="pLziMYB7hLuN-mU67Tzj-36" value="+ doTransaction( ) : bool" style="text;strokeColor=none;fillColor=none;align=left;verticalAlign=top;spacingLeft=4;spacingRight=4;overflow=hidden;rotatable=0;points=[[0,0.5],[1,0.5]];portConstraint=eastwest;fontColor=#000000;" vertex="1" parent="pLziMYB7hLuN-mU67Tzj-32">
          <mxGeometry y="86" width="174" height="26" as="geometry" />
        </mxCell>
        <mxCell id="pLziMYB7hLuN-mU67Tzj-37" value="- virtual isValid(string info, &#xa;  HashTable&lt;char, Movie&gt;&amp;,&#xa;  HashTable&lt;int, Customer&gt;&amp;)" style="text;strokeColor=none;fillColor=none;align=left;verticalAlign=top;spacingLeft=4;spacingRight=4;overflow=hidden;rotatable=0;points=[[0,0.5],[1,0.5]];portConstraint=eastwest;" vertex="1" parent="pLziMYB7hLuN-mU67Tzj-32">
          <mxGeometry y="112" width="174" height="48" as="geometry" />
        </mxCell>
        <mxCell id="pLziMYB7hLuN-mU67Tzj-38" value="Inventory" style="swimlane;fontStyle=0;align=center;verticalAlign=top;childLayout=stackLayout;horizontal=1;startSize=26;horizontalStack=0;resizeParent=1;resizeLast=0;collapsible=1;marginBottom=0;rounded=0;shadow=0;strokeWidth=1;" vertex="1" parent="WIyWlLk6GJQsqaUBKTNV-1">
          <mxGeometry x="360" y="1604" width="174" height="134" as="geometry">
            <mxRectangle x="340" y="380" width="170" height="26" as="alternateBounds" />
          </mxGeometry>
        </mxCell>
        <mxCell id="pLziMYB7hLuN-mU67Tzj-39" value="- movie : Movie" style="text;strokeColor=none;fillColor=none;align=left;verticalAlign=top;spacingLeft=4;spacingRight=4;overflow=hidden;rotatable=0;points=[[0,0.5],[1,0.5]];portConstraint=eastwest;fontColor=#000000;" vertex="1" parent="pLziMYB7hLuN-mU67Tzj-38">
          <mxGeometry y="26" width="174" height="26" as="geometry" />
        </mxCell>
        <mxCell id="pLziMYB7hLuN-mU67Tzj-41" value="" style="line;html=1;strokeWidth=1;align=left;verticalAlign=middle;spacingTop=-1;spacingLeft=3;spacingRight=3;rotatable=0;labelPosition=right;points=[];portConstraint=eastwest;" vertex="1" parent="pLziMYB7hLuN-mU67Tzj-38">
          <mxGeometry y="52" width="174" height="8" as="geometry" />
        </mxCell>
        <mxCell id="pLziMYB7hLuN-mU67Tzj-42" value="+ doTransaction( ) : bool" style="text;strokeColor=none;fillColor=none;align=left;verticalAlign=top;spacingLeft=4;spacingRight=4;overflow=hidden;rotatable=0;points=[[0,0.5],[1,0.5]];portConstraint=eastwest;fontColor=#000000;" vertex="1" parent="pLziMYB7hLuN-mU67Tzj-38">
          <mxGeometry y="60" width="174" height="26" as="geometry" />
        </mxCell>
        <mxCell id="pLziMYB7hLuN-mU67Tzj-43" value="- virtual isValid(string info, &#xa;  HashTable&lt;char, Movie&gt;&amp;)" style="text;strokeColor=none;fillColor=none;align=left;verticalAlign=top;spacingLeft=4;spacingRight=4;overflow=hidden;rotatable=0;points=[[0,0.5],[1,0.5]];portConstraint=eastwest;" vertex="1" parent="pLziMYB7hLuN-mU67Tzj-38">
          <mxGeometry y="86" width="174" height="48" as="geometry" />
        </mxCell>
        <mxCell id="pLziMYB7hLuN-mU67Tzj-44" value="History" style="swimlane;fontStyle=0;align=center;verticalAlign=top;childLayout=stackLayout;horizontal=1;startSize=26;horizontalStack=0;resizeParent=1;resizeLast=0;collapsible=1;marginBottom=0;rounded=0;shadow=0;strokeWidth=1;" vertex="1" parent="WIyWlLk6GJQsqaUBKTNV-1">
          <mxGeometry x="160" y="1604" width="174" height="134" as="geometry">
            <mxRectangle x="340" y="380" width="170" height="26" as="alternateBounds" />
          </mxGeometry>
        </mxCell>
        <mxCell id="pLziMYB7hLuN-mU67Tzj-46" value="- user : Customer" style="text;strokeColor=none;fillColor=none;align=left;verticalAlign=top;spacingLeft=4;spacingRight=4;overflow=hidden;rotatable=0;points=[[0,0.5],[1,0.5]];portConstraint=eastwest;fontColor=#000000;" vertex="1" parent="pLziMYB7hLuN-mU67Tzj-44">
          <mxGeometry y="26" width="174" height="26" as="geometry" />
        </mxCell>
        <mxCell id="pLziMYB7hLuN-mU67Tzj-47" value="" style="line;html=1;strokeWidth=1;align=left;verticalAlign=middle;spacingTop=-1;spacingLeft=3;spacingRight=3;rotatable=0;labelPosition=right;points=[];portConstraint=eastwest;" vertex="1" parent="pLziMYB7hLuN-mU67Tzj-44">
          <mxGeometry y="52" width="174" height="8" as="geometry" />
        </mxCell>
        <mxCell id="pLziMYB7hLuN-mU67Tzj-48" value="+ doTransaction( ) : bool" style="text;strokeColor=none;fillColor=none;align=left;verticalAlign=top;spacingLeft=4;spacingRight=4;overflow=hidden;rotatable=0;points=[[0,0.5],[1,0.5]];portConstraint=eastwest;fontColor=#000000;" vertex="1" parent="pLziMYB7hLuN-mU67Tzj-44">
          <mxGeometry y="60" width="174" height="26" as="geometry" />
        </mxCell>
        <mxCell id="pLziMYB7hLuN-mU67Tzj-49" value="- virtual isValid(string info,&#xa;  HashTable&lt;int, Customer&gt;&amp;)" style="text;strokeColor=none;fillColor=none;align=left;verticalAlign=top;spacingLeft=4;spacingRight=4;overflow=hidden;rotatable=0;points=[[0,0.5],[1,0.5]];portConstraint=eastwest;" vertex="1" parent="pLziMYB7hLuN-mU67Tzj-44">
          <mxGeometry y="86" width="174" height="48" as="geometry" />
        </mxCell>
      </root>
    </mxGraphModel>
  </diagram>
</mxfile>
